<svg width="225" height="75" viewBox="0 0 225 75" fill="none" xmlns="http://www.w3.org/2000/svg">
<path d="M0 0H173.34L225 75H0V0Z" fill="#80BC00"/>
<path d="M90.7968 15.5072C90.3578 12.4962 88.514 13.3785 88.7883 12.3638C88.8761 12.0439 88.5359 10.7314 86.5933 10.7314H49.1793V32.6028C49.8953 32.7029 50.6243 32.5633 51.2536 32.2057C52.4279 30.7939 53.4486 28.8969 55.3692 28.5439C55.929 28.4447 56.6643 28.3785 57.0484 28.8307C56.8509 29.2609 56.2802 29.2057 55.8851 29.3491C54.5437 29.6749 53.3543 30.4536 52.5157 31.555C52.4878 31.615 52.4792 31.6823 52.491 31.7475C52.5028 31.8127 52.5344 31.8726 52.5816 31.9189C52.7272 31.9257 52.8727 31.9032 53.0096 31.8528C53.6352 31.4006 54.2388 30.7498 55.0729 30.9042C55.1064 30.9128 55.1374 30.9292 55.1634 30.9522C55.1894 30.9751 55.2096 31.0038 55.2224 31.036C55.2353 31.0683 55.2403 31.1031 55.2372 31.1377C55.2341 31.1723 55.223 31.2057 55.2046 31.2351C54.6376 31.7295 53.9921 32.1247 53.2949 32.4042C52.4389 33.0991 50.0792 33.6726 49.7829 34.8307C50.1854 34.9054 50.5924 34.9533 51.0012 34.9741C52.0987 35.0513 52.395 33.7498 53.1962 33.1873C53.5254 32.9778 53.9315 32.691 54.2937 32.8895C54.2937 33.077 54.1949 33.1763 54.162 33.3197C53.1632 34.3454 51.967 34.9851 50.9573 36.0439C50.6609 36.3748 49.3549 36.7498 49.1573 37.1469V41.2057C50.3227 39.647 51.7898 38.3413 53.4705 37.3675C53.6242 37.3675 53.8766 37.2682 53.9973 37.4336C54.1181 37.5991 53.9973 37.9961 53.9973 38.2388C53.3937 39.3417 52.5486 40.2351 52.0109 41.305C51.9744 40.8305 52.0856 40.3564 52.3291 39.9484C52.3291 39.8601 52.4169 39.7057 52.3291 39.6395C51.8792 39.6395 51.6706 40.1469 51.517 40.4557C50.9792 41.8013 49.3988 43.191 49.1464 44.6579V63.077H60.9994C61.7457 62.4486 62.3868 61.7038 62.8981 60.8712C63.4359 60.1322 63.5676 59.1175 64.2151 58.4888C64.3249 58.4888 64.4017 58.4006 64.5115 58.4888C64.6467 58.8846 64.6961 59.305 64.6564 59.7216C64.6166 60.1382 64.4886 60.5414 64.281 60.9042C64.0944 61.3785 63.6774 61.7425 63.6554 62.2939C63.6554 62.4373 63.9737 62.4484 64.1273 62.2939C65.3236 61.3013 65.5212 59.6359 65.8834 58.1359C65.8834 58.0807 65.8834 57.9263 66.059 57.9373C66.2346 57.9484 66.1468 58.4337 66.1138 58.6653C66.0809 58.8969 65.9492 59.0844 66.0041 59.2829C66.5858 59.5256 66.6297 58.6653 66.8821 58.3123C66.9589 58.3123 67.0687 58.3785 67.0906 58.4778C67.122 58.851 67.067 59.2264 66.9299 59.5746C66.7928 59.9229 66.5773 60.2345 66.3004 60.4851C66.1029 60.6837 65.598 60.7939 65.7078 61.1138C65.8175 61.4337 66.1797 61.3123 66.4102 61.2572C66.465 61.2572 66.5089 61.3234 66.4102 61.4667C66.015 62.0549 65.5255 62.5729 64.9614 62.9998H67.1565C68.3551 62.2362 69.4164 61.2741 70.2953 60.1542H70.438C71.0307 59.305 71.5355 58.4447 72.1611 57.5844C72.8029 56.6766 73.0632 55.5512 72.8855 54.452C72.6221 53.8013 71.8977 54.066 71.3709 54.0991C71.0857 53.9865 70.8302 53.809 70.6246 53.5807C70.5039 53.4042 70.6246 53.1064 70.3722 52.9962C69.8454 52.8417 69.4173 53.327 69.0442 53.702C68.8905 53.7903 68.693 53.9447 68.5613 53.8344C68.5613 52.7314 69.5161 52.1248 69.6588 51.1432C69.6588 50.9447 69.4832 50.8564 69.3295 50.7351C68.6052 50.7351 68.232 51.4741 67.7491 51.8381H67.5186C67.4558 51.7539 67.4115 51.6573 67.3888 51.5546C67.3661 51.4519 67.3654 51.3454 67.3869 51.2425C67.5414 50.58 67.8626 49.9685 68.3198 49.4667C69.988 46.9189 73.533 46.941 73.533 46.941C76.9023 46.941 79.1632 49.1469 79.7229 49.1469C79.8709 49.0988 79.9967 48.9987 80.0773 48.8651C80.1579 48.7314 80.1879 48.573 80.1619 48.4189C80.1619 47.9337 79.9314 47.4263 79.6132 47.3822C79.2949 47.3381 79.8436 47.8013 79.0644 47.6138C76.0902 46.941 73.972 44.9006 74.1476 43.0366C74.3232 41.1726 73.95 40.3344 77.3743 38.8785C77.8901 38.6579 78.6254 38.6138 78.4718 37.3013C78.4718 37.3013 78.362 36.9042 78.0876 36.9042C78.0473 36.9012 78.0067 36.9063 77.9683 36.9191C77.9298 36.9319 77.8943 36.9522 77.8637 36.9788C77.8331 37.0055 77.808 37.038 77.79 37.0744C77.7719 37.1108 77.7612 37.1504 77.7584 37.191C77.7584 37.191 77.934 37.5219 77.473 37.5219C77.0121 37.5219 77.2645 36.9925 76.1121 36.9925C75.6901 36.9636 75.2668 37.0276 74.8719 37.18C74.4338 37.3432 73.9662 37.4109 73.5001 37.3785C73.0455 37.406 72.5908 37.3267 72.1721 37.1469C71.7477 37.007 71.3011 36.9471 70.8551 36.9704C69.7576 36.9704 69.9112 37.5109 69.5051 37.5219C69.2747 37.5219 69.1978 37.3454 69.2527 37.0807C69.3076 36.816 69.4393 36.816 68.7588 36.3197C68.6051 36.1869 68.4992 36.0069 68.4575 35.8075C68.4158 35.6081 68.4407 35.4005 68.5283 35.2167C68.9403 34.5451 69.2059 33.7932 69.3076 33.0109C69.4393 32.1285 67.8698 30.2976 67.5735 29.702C67.0687 28.7535 67.5735 28.3675 65.6748 28.1579C65.07 28.1617 64.4834 27.95 64.0192 27.5602C63.5551 27.1705 63.2434 26.6281 63.1396 26.0292C63.1396 25.9189 63.1396 25.7204 63.4798 25.8748C64.1164 26.2278 64.6432 27.4631 65.6748 27.4631C66.7065 27.4631 67.8698 27.6726 68.0125 28.0807C68.4625 29.0072 68.9564 29.1837 69.2088 29.1837C69.9332 29.2388 68.9893 27.6064 69.2637 27.3087C69.5381 27.0109 69.6917 27.1653 69.9332 27.2204C70.6137 27.3551 71.231 27.7118 71.6892 28.2351C71.777 28.3785 72.3038 28.3013 72.3806 27.9925C72.7428 26.5587 73.2037 26.6138 73.8732 26.7131C74.5427 26.8123 74.5646 26.8234 74.5646 27.5844C74.5494 27.6846 74.561 27.787 74.598 27.8813C74.635 27.9756 74.6962 28.0583 74.7754 28.1211C74.8546 28.1839 74.9489 28.2244 75.0488 28.2386C75.1486 28.2529 75.2504 28.2402 75.3439 28.202C75.9475 28.0587 76.2658 26.8123 76.9243 26.7682C77.0889 26.7682 77.1767 26.7682 77.2206 26.9116C77.2645 27.055 76.7048 27.5623 76.8804 27.9153C77.056 28.2682 77.1767 27.7498 77.3852 27.8491C77.8681 28.1028 77.5718 29.1837 78.0437 29.1506C78.5157 29.1175 78.5486 28.6873 78.8669 28.2903C79.1068 27.9653 79.4524 27.7351 79.8436 27.6395C80.906 27.3538 81.9445 26.985 82.9496 26.5366C85.1446 25.2682 83.7837 21.9153 81.9618 19.7756C81.5228 19.2462 82.1813 18.816 82.7411 19.3785C83.8386 20.4814 84.3544 22.0807 85.1885 22.0807C86.6477 21.882 88.0312 21.3084 89.2054 20.4153C89.8225 19.7591 90.2872 18.9737 90.5662 18.1156C90.8451 17.2574 90.9314 16.3477 90.8187 15.452M64.4785 42.2314C65.2468 40.8087 68.2101 38.4704 69.7795 38.9226C70.6177 39.1367 71.3663 39.6134 71.9168 40.2836C72.4674 40.9539 72.7913 41.7829 72.8416 42.6506C73.1379 45.9594 69.0222 47.8675 68.8137 47.7462C68.6052 47.6248 68.8137 47.4594 68.8137 47.2939C68.8056 47.2432 68.7781 47.1975 68.7372 47.1667C68.6962 47.1358 68.645 47.1221 68.5942 47.1285C67.6942 47.1285 67.6394 48.3969 67.0357 48.9373C66.8601 48.9373 66.7504 48.7939 66.6077 48.7057C66.2785 48.1873 67.1345 48.2094 67.2552 47.8013C67.376 47.3932 67.3321 47.1837 67.1565 47.0513C67.0605 46.9771 66.9428 46.9368 66.8217 46.9368C66.7006 46.9368 66.5829 46.9771 66.487 47.0513C66.1468 47.2939 66.1358 47.9557 65.6968 47.7682C65.6162 47.6671 65.5579 47.5499 65.5257 47.4244C65.4935 47.2989 65.4883 47.168 65.5102 47.0403C65.9602 46.4888 66.7833 46.5881 66.8711 45.7498C66.8711 45.2425 67.3211 45.2976 67.5845 45.1984C67.8479 45.0991 67.8808 44.7462 67.9796 44.4704C68.1881 43.8638 68.7588 43.9741 68.8137 43.6432C68.8277 43.5481 68.8145 43.4509 68.7756 43.363C68.7367 43.2752 68.6738 43.2002 68.5942 43.1469C68.4715 43.1261 68.3457 43.1331 68.2261 43.1674C68.1065 43.2018 67.996 43.2626 67.9028 43.3454C67.7491 43.4557 67.8369 43.7535 67.6174 43.8748C67.3763 43.9855 67.1217 44.0634 66.8601 44.1064C66.465 44.2388 66.4541 44.6359 66.3663 45.0439C66.3663 45.2535 65.9053 45.1873 65.7297 45.2314C65.3456 45.3307 65.2468 45.7498 65.0931 46.1028C65.0931 46.1028 65.0931 46.191 65.0163 46.191C64.9395 46.191 64.709 46.0256 64.6102 45.9153C64.5115 45.805 64.4456 45.6726 64.5444 45.5623C64.6013 45.5031 64.6735 45.4611 64.7529 45.441C64.8759 45.3982 64.9793 45.312 65.0439 45.1984C65.1085 45.0849 65.1299 44.9516 65.1041 44.8234C64.9724 44.3491 65.5431 44.1837 65.5541 44.0072C65.5659 43.9255 65.5534 43.8422 65.5183 43.7677C65.4831 43.6931 65.4269 43.6306 65.3565 43.5881C65.0053 43.3675 64.731 43.7866 64.3907 43.9079C64.292 43.9079 64.1054 43.7866 64.0615 43.6432C64.0724 43.1684 64.1966 42.7031 64.4237 42.2866M61.2189 12.5072C62.8619 12.8643 64.3136 13.8238 65.2907 15.1984C66.0809 16.4116 66.3882 18.0219 67.782 18.805C67.9639 18.9865 68.1857 19.1225 68.4296 19.202C68.1141 19.18 67.8071 19.0897 67.5296 18.9373C67.3979 18.9373 67.2882 18.7278 67.1345 18.8491C66.9809 18.9704 67.1345 18.9925 67.0796 19.0697C67.0248 19.1469 67.2991 19.2462 67.3979 19.3564C67.3268 19.429 67.2608 19.5064 67.2004 19.5881C65.7297 19.0035 65.576 17.3822 64.8078 16.2131C64.4793 15.5033 63.9908 14.8803 63.381 14.3932C63.3266 14.3883 63.272 14.4005 63.2248 14.4282C63.1776 14.4559 63.1402 14.4976 63.1176 14.5476C63.2493 14.8344 63.5457 15.055 63.6993 15.3307C64.1813 16.0043 64.4318 16.8174 64.4127 17.6469C64.3139 17.7351 64.4127 17.8895 64.2261 17.9116C64.1277 17.9294 64.0261 17.9128 63.9383 17.8647C63.8505 17.8165 63.7817 17.7397 63.7432 17.6469C62.975 16.6101 62.953 15.1984 61.8994 14.3381C61.8994 14.3381 61.8994 14.3381 61.8226 14.3381C61.4714 14.6359 61.8226 15.1322 61.8226 15.5403V15.827C61.3484 14.6938 60.5046 13.7564 59.43 13.1689C58.7192 13.043 57.9896 13.0766 57.2932 13.2673C56.5969 13.4579 55.9511 13.801 55.4022 14.2719C55.3877 14.2872 55.3683 14.2968 55.3475 14.2989C55.3267 14.3011 55.3057 14.2957 55.2885 14.2837C55.2713 14.2717 55.2589 14.2539 55.2535 14.2336C55.2482 14.2132 55.2503 14.1916 55.2595 14.1726C55.3253 13.5881 56.4667 11.4263 61.2409 12.5182M60.4397 19.577C58.8368 18.9038 57.269 18.1492 55.7424 17.316C55.457 17.2498 55.0949 17.1064 54.8315 17.316C54.568 17.5256 55.0729 17.6689 55.1936 17.8564C54.4517 17.7366 53.6912 17.8283 52.9986 18.1212C52.845 18.1212 52.6584 18.1212 52.5486 18.0439C52.5486 17.6689 52.8889 17.327 53.1303 17.0403C53.4684 16.7253 53.8661 16.4819 54.2998 16.3246C54.7335 16.1673 55.1942 16.0994 55.6546 16.1248C56.669 16.1549 57.6543 16.4722 58.4971 17.0403C59.8471 17.8564 60.9555 19.1138 62.2177 20.0403C61.5667 19.9737 60.9279 19.8178 60.319 19.577M70.0868 23.9888C70.2185 24.6726 69.7685 26.1947 69.5051 26.2498C69.0442 26.2498 69.0222 25.7645 68.9125 25.0917C68.8027 24.4189 69.3844 23.5697 68.7698 23.3491C67.9028 23.3491 68.2869 24.7939 67.5955 24.7939C67.2223 24.7939 66.8382 24.3969 66.3663 24.2535C63.9408 23.5807 62.964 25.5991 62.503 25.4998C61.647 25.3123 62.3274 24.7719 62.503 24.5072C63.4243 23.5943 64.5989 22.9829 65.8724 22.7535C66.8601 22.5329 67.5077 21.9042 68.9234 21.9042C70.3502 22.1138 70.021 23.3822 70.0868 23.9888ZM82.6533 23.702C82.7779 23.7576 82.8792 23.8554 82.9394 23.9784C82.9995 24.1014 83.0148 24.2417 82.9825 24.3748C82.9167 24.7167 82.6752 24.4851 82.4008 24.3748C81.9484 24.1653 81.4495 24.0775 80.9531 24.12C80.4568 24.1626 79.9799 24.334 79.5693 24.6175C78.9656 24.9814 78.812 24.3417 78.5815 23.8895C78.4718 23.7131 78.2193 23.3712 78.0108 23.4814C77.8023 23.5917 77.912 24.1984 78.0108 24.3638C78.0542 24.5983 78.0296 24.8404 77.9401 25.0613C77.8507 25.2822 77.7 25.4727 77.506 25.6101C77.1548 25.6101 77.1218 25.4337 76.9572 25.1359C76.4414 24.2425 76.2767 22.3895 77.2865 22.0587C77.8101 21.9223 78.3584 21.9122 78.8867 22.0291C79.415 22.146 79.9083 22.3867 80.3266 22.7314C81.0694 23.1427 81.8627 23.4542 82.6862 23.6579M82.6862 14.6028C83.0098 14.1083 83.4782 13.7271 84.0267 13.5117C84.5753 13.2963 85.1768 13.2575 85.7482 13.4006C86.2274 13.5347 86.6751 13.7634 87.0653 14.0734C87.0653 14.3822 87.4713 14.3932 87.5152 14.691C86.1104 14.1726 84.1349 13.7204 82.7411 14.5587M86.7031 17.5256C86.0851 17.4781 85.4761 17.3483 84.8922 17.1395C85.7373 16.7094 87.1421 15.7829 87.8884 16.9851C87.7018 17.4814 87.1421 17.4484 86.7031 17.5256Z" fill="#003B4D"/>
<path d="M109.641 49.423H103.945L95.9331 37.8752V49.423H91.2358V24.7061H95.9331V35.1619L104.505 24.7061H108.928L100.191 35.6031L109.641 49.423Z" fill="white"/>
<path d="M122.076 49.8086C114.272 49.8086 110.003 45.2534 110.003 36.9924C110.003 32.9777 110.936 29.8233 112.791 27.6284C113.765 26.5314 114.969 25.6655 116.317 25.0933C117.664 24.5211 119.122 24.2568 120.583 24.3196C122.678 24.4664 124.763 24.7315 126.828 25.1137L127.563 25.2461V29.8453L123.854 27.6395C122.833 27.1194 121.706 26.8439 120.561 26.8343H120.484C115.798 26.8343 115.107 32.349 114.997 37.1027C114.931 41.1174 115.765 44.1174 117.389 45.7828C117.948 46.329 118.612 46.7546 119.341 47.0334C120.069 47.3122 120.847 47.4384 121.626 47.4042C123.381 47.4237 125.099 46.8958 126.543 45.8931L128.266 44.6799L127.607 48.7828L127.19 48.9924C125.527 49.5847 123.774 49.8796 122.01 49.8637" fill="white"/>
<path d="M140.81 49.4231H132.294V24.7062H140.141C141.937 24.5683 143.735 24.9511 145.321 25.8091C146.108 26.3449 146.738 27.0827 147.145 27.9458C147.552 28.8089 147.722 29.7659 147.637 30.7172C147.675 31.4735 147.563 32.2299 147.306 32.942C147.05 33.6541 146.655 34.3076 146.144 34.8643L145.53 35.4819L146.221 36.0113C147.082 36.7452 147.759 37.6731 148.196 38.7197C148.633 39.7662 148.817 40.9016 148.734 42.0334C148.765 43.0838 148.556 44.1274 148.122 45.0835C147.688 46.0397 147.041 46.8829 146.232 47.5481C144.685 48.7595 142.771 49.3983 140.81 49.3569M136.991 46.8643H139.296C142.906 46.8643 144.004 45.6841 144.004 41.8128C144.017 41.2872 143.919 40.7649 143.717 40.2798C143.515 39.7948 143.214 39.3579 142.833 38.9978C142.452 38.6377 142 38.3624 141.505 38.1899C141.011 38.0173 140.486 37.9515 139.965 37.9966H136.991V46.8643ZM136.991 34.2136H139.383C140.145 34.2395 140.901 34.0686 141.578 33.7172C142.01 33.392 142.35 32.9598 142.565 32.463C142.781 31.9662 142.864 31.4216 142.808 30.8827C142.808 27.4636 140.975 27.1878 138.933 27.1878H136.991V34.2136Z" fill="white"/>
</svg>
